# xmcd
#
# Track frame offsets: 
#        150
#        26175
#        54150
#        84150
#        110505
#        139950
#        174150
#        206100
#        225180
#        257775
#        295050
#
# Disc length: 4314 seconds
#
# Revision: 0
# Processed by: cddbd v1.5.2PL0 Copyright (c) Steve Scherf et al.
# Submitted via: ExactAudioCopy v1.1
#
DISCID=8e10d80b
DTITLE=To Be Continued Brass Band - Live In Concert: A Long Way From H
DTITLE=ome
DYEAR=2012
DGENRE=New Orleans Brass Band
TTITLE0=Black Bird Special
TTITLE1=Shakin' Dat Ass
TTITLE2=Got Fire
TTITLE3=Bad
TTITLE4=Human Nature
TTITLE5=I Want You Back
TTITLE6=Sexual Healing
TTITLE7=I Want You
TTITLE8=A Bungo
TTITLE9=Ray Nagin
TTITLE10=For The Love Of You
EXTD=
EXTT0=
EXTT1=
EXTT2=
EXTT3=
EXTT4=
EXTT5=
EXTT6=
EXTT7=
EXTT8=
EXTT9=
EXTT10=
PLAYORDER=
